<svg version="1.1" id="Layer_1" xmlns="http://www.w3.org/2000/svg" xmlns:xlink="http://www.w3.org/1999/xlink" x="0px" y="0px"
	 width="100%" viewBox="0 0 400 350" enable-background="new 0 0 400 350" xml:space="preserve">
<path fill="#010101" opacity="1.000000" stroke="none" 
	d="
M281.000000,351.000000 
	C187.333344,351.000000 94.166702,351.000000 1.000037,351.000000 
	C1.000025,234.333374 1.000025,117.666740 1.000013,1.000084 
	C134.333267,1.000056 267.666534,1.000056 400.999878,1.000028 
	C400.999908,117.666588 400.999908,234.333176 400.999939,350.999878 
	C361.166656,351.000000 321.333344,351.000000 281.000000,351.000000 
M210.495605,263.449280 
	C213.993607,263.447266 217.491791,263.468292 220.989563,263.439087 
	C233.063232,263.338287 240.911652,257.083313 243.007156,245.250610 
	C244.991867,234.043610 250.185867,224.701477 257.773346,216.386139 
	C276.107574,196.293182 282.619659,172.855179 276.974426,146.189514 
	C267.155457,99.809273 213.984543,73.080498 170.693542,92.709839 
	C121.427086,115.048599 108.854813,176.281998 145.403015,216.172363 
	C153.128189,224.603989 158.420258,234.187042 160.464951,245.483154 
	C162.524750,256.862671 169.996902,263.308868 181.512924,263.423767 
	C190.840134,263.516815 200.168961,263.446808 210.495605,263.449280 
M191.102234,320.719604 
	C196.930283,320.729584 202.758347,320.751160 208.586380,320.746857 
	C217.499084,320.740234 220.264801,318.398163 222.840408,309.973053 
	C223.497269,307.824371 225.518173,305.602814 227.511154,304.448547 
	C232.563950,301.521973 235.553482,297.611115 235.643661,291.695282 
	C235.686813,288.865204 235.749008,286.030426 235.639847,283.204071 
	C235.423416,277.600159 232.616577,274.316895 227.043503,274.250824 
	C210.061600,274.049530 193.075409,274.111542 176.091782,274.215607 
	C171.220078,274.245453 168.234207,277.176941 167.709549,281.852386 
	C167.268555,285.782532 167.404190,289.846771 167.846710,293.788513 
	C168.359222,298.353638 170.833725,302.202911 175.161438,303.781128 
	C179.057571,305.201874 180.436310,307.911194 181.096649,311.398956 
	C182.080170,316.593750 185.113235,319.630188 191.102234,320.719604 
M332.234436,171.158951 
	C333.230652,171.157684 334.227112,171.171066 335.223022,171.152817 
	C341.952484,171.029572 345.480743,167.987061 345.463440,162.330948 
	C345.446808,156.899048 342.243195,154.297058 335.230591,154.243271 
	C326.597229,154.177032 317.961426,154.133179 309.329651,154.268478 
	C303.397430,154.361450 299.616058,157.832672 299.635010,162.759995 
	C299.654266,167.760269 303.385620,171.056015 309.376984,171.129807 
	C316.681519,171.219788 323.987915,171.156097 332.234436,171.158951 
M286.531616,90.040802 
	C292.388855,84.142632 298.387787,78.376480 304.051849,72.298309 
	C307.625519,68.463394 307.299927,63.987946 303.829285,60.772831 
	C300.288483,57.492718 295.750824,57.290203 292.218048,60.719254 
	C285.062469,67.664665 277.994873,74.708862 271.109833,81.921272 
	C267.738708,85.452690 267.983368,89.839401 271.124817,93.073463 
	C274.399719,96.444939 279.040741,96.706009 282.795502,93.651489 
	C283.951660,92.710960 284.956024,91.583847 286.531616,90.040802 
M276.144409,248.356140 
	C281.565460,253.759216 286.879333,259.276001 292.447235,264.523254 
	C295.858704,267.738220 299.948547,267.569580 303.219635,264.612183 
	C306.565063,261.587555 307.326111,256.679260 304.296509,253.437943 
	C297.253845,245.903168 290.037140,238.517166 282.613831,231.358276 
	C279.125458,227.994171 274.689423,228.433853 271.443970,231.672913 
	C267.989868,235.120224 267.822601,239.451431 271.106415,243.227142 
	C272.523346,244.856323 274.121979,246.327454 276.144409,248.356140 
M119.643394,68.856972 
	C117.061386,66.274658 114.550957,63.615513 111.880730,61.127884 
	C107.786926,57.314011 103.396523,57.196339 99.988533,60.650017 
	C96.245651,64.443077 96.154808,68.915665 100.149399,72.977951 
	C106.787758,79.728790 113.557175,86.354683 120.396645,92.902359 
	C124.442307,96.775436 128.820709,96.771690 132.299728,93.232819 
	C135.897156,89.573509 135.918243,85.446632 132.076508,81.365601 
	C128.209778,77.258003 124.142227,73.339447 119.643394,68.856972 
M98.426125,262.007782 
	C102.982063,267.811768 106.984505,268.585144 111.676056,264.079102 
	C118.732201,257.301971 125.640884,250.363525 132.419998,243.308914 
	C135.985611,239.598404 135.826813,235.095261 132.527969,231.761383 
	C129.417419,228.617844 124.508522,228.575409 120.895279,232.031967 
	C113.939194,238.686447 107.106766,245.472519 100.318336,252.298752 
	C97.844406,254.786453 96.508385,257.751099 98.426125,262.007782 
M87.473251,153.915314 
	C80.820610,153.919418 74.165932,153.823654 67.515953,153.958893 
	C62.096382,154.069107 58.714630,157.223816 58.537964,161.971115 
	C58.347004,167.102386 61.485580,170.425339 67.196785,170.759567 
	C71.009529,170.982697 74.844803,170.832916 78.669975,170.828491 
	C84.324417,170.821960 89.990448,171.014633 95.629883,170.714890 
	C100.845398,170.437683 104.374527,166.694687 104.314659,162.182602 
	C104.252487,157.497833 100.750900,154.201706 95.444412,153.950958 
	C93.120918,153.841171 90.788445,153.921387 87.473251,153.915314 
M195.218552,61.084915 
	C197.759705,64.323372 201.026184,65.570541 204.909256,64.064346 
	C208.775803,62.564560 210.250687,59.467377 210.201553,55.353104 
	C210.094269,46.371696 210.221298,37.387718 210.154251,28.405525 
	C210.109299,22.380491 206.791626,18.608854 201.847427,18.719908 
	C196.877884,18.831530 193.852310,22.508362 193.813354,28.681522 
	C193.759796,37.164856 193.736755,45.649574 193.843658,54.131893 
	C193.870255,56.242474 194.445984,58.346134 195.218552,61.084915 
z"/>
<path fill="#E9A185" opacity="1.000000" stroke="none" 
	d="
M209.996338,263.449219 
	C200.168961,263.446808 190.840134,263.516815 181.512924,263.423767 
	C169.996902,263.308868 162.524750,256.862671 160.464951,245.483154 
	C158.420258,234.187042 153.128189,224.603989 145.403015,216.172363 
	C108.854813,176.281998 121.427086,115.048599 170.693542,92.709839 
	C213.984543,73.080498 267.155457,99.809273 276.974426,146.189514 
	C282.619659,172.855179 276.107574,196.293182 257.773346,216.386139 
	C250.185867,224.701477 244.991867,234.043610 243.007156,245.250610 
	C240.911652,257.083313 233.063232,263.338287 220.989563,263.439087 
	C217.491791,263.468292 213.993607,263.447266 209.996338,263.449219 
M142.152847,171.926758 
	C144.355438,185.692520 150.782120,197.231628 160.232697,207.369186 
	C168.087265,215.794769 173.060089,225.915527 176.080688,237.009125 
	C178.783997,246.937469 178.794891,246.815369 189.252182,246.656845 
	C192.651077,246.605331 193.924255,245.604019 193.880386,242.049484 
	C193.709702,228.221619 193.915710,214.388718 193.695938,200.562225 
	C193.663422,198.516754 192.562134,196.064377 191.153473,194.542404 
	C186.522156,189.538635 181.457932,184.938965 176.682800,180.063797 
	C172.560196,175.854797 172.396240,171.285141 176.010986,167.758347 
	C179.529877,164.325134 183.798477,164.489532 187.960999,168.418610 
	C191.352463,171.619858 194.765930,174.831253 197.831909,178.333786 
	C200.515274,181.399261 202.564255,181.735138 205.375290,178.463608 
	C208.404510,174.938141 211.821396,171.732437 215.195557,168.519974 
	C219.492966,164.428513 223.999924,164.298309 227.534225,167.980865 
	C230.750595,171.332199 230.499893,176.058197 226.689026,180.001541 
	C222.173752,184.673737 217.339081,189.051437 213.027832,193.899170 
	C211.443466,195.680679 210.150375,198.423431 210.104141,200.755096 
	C209.833298,214.413071 209.961075,228.079178 209.986160,241.742477 
	C209.988770,243.162491 210.200180,244.582108 210.336227,246.268982 
	C213.825272,246.268982 216.838882,246.024887 219.796707,246.326965 
	C224.089844,246.765411 225.996902,245.179810 226.784332,240.818497 
	C229.276642,227.014359 235.786636,215.150574 245.473572,205.073395 
	C253.906754,196.300476 259.070190,186.007446 261.413666,174.054398 
	C268.690338,136.938889 237.364944,100.906380 199.619263,103.177147 
	C163.886108,105.326843 138.347656,135.398438 142.152847,171.926758 
z"/>
<path fill="#EBA286" opacity="1.000000" stroke="none" 
	d="
M190.674255,320.688873 
	C185.113235,319.630188 182.080170,316.593750 181.096649,311.398956 
	C180.436310,307.911194 179.057571,305.201874 175.161438,303.781128 
	C170.833725,302.202911 168.359222,298.353638 167.846710,293.788513 
	C167.404190,289.846771 167.268555,285.782532 167.709549,281.852386 
	C168.234207,277.176941 171.220078,274.245453 176.091782,274.215607 
	C193.075409,274.111542 210.061600,274.049530 227.043503,274.250824 
	C232.616577,274.316895 235.423416,277.600159 235.639847,283.204071 
	C235.749008,286.030426 235.686813,288.865204 235.643661,291.695282 
	C235.553482,297.611115 232.563950,301.521973 227.511154,304.448547 
	C225.518173,305.602814 223.497269,307.824371 222.840408,309.973053 
	C220.264801,318.398163 217.499084,320.740234 208.586380,320.746857 
	C202.758347,320.751160 196.930283,320.729584 190.674255,320.688873 
z"/>
<path fill="#E49E82" opacity="1.000000" stroke="none" 
	d="
M331.763977,171.158905 
	C323.987915,171.156097 316.681519,171.219788 309.376984,171.129807 
	C303.385620,171.056015 299.654266,167.760269 299.635010,162.759995 
	C299.616058,157.832672 303.397430,154.361450 309.329651,154.268478 
	C317.961426,154.133179 326.597229,154.177032 335.230591,154.243271 
	C342.243195,154.297058 345.446808,156.899048 345.463440,162.330948 
	C345.480743,167.987061 341.952484,171.029572 335.223022,171.152817 
	C334.227112,171.171066 333.230652,171.157684 331.763977,171.158905 
z"/>
<path fill="#E59E83" opacity="1.000000" stroke="none" 
	d="
M286.280762,90.291489 
	C284.956024,91.583847 283.951660,92.710960 282.795502,93.651489 
	C279.040741,96.706009 274.399719,96.444939 271.124817,93.073463 
	C267.983368,89.839401 267.738708,85.452690 271.109833,81.921272 
	C277.994873,74.708862 285.062469,67.664665 292.218048,60.719254 
	C295.750824,57.290203 300.288483,57.492718 303.829285,60.772831 
	C307.299927,63.987946 307.625519,68.463394 304.051849,72.298309 
	C298.387787,78.376480 292.388855,84.142632 286.280762,90.291489 
z"/>
<path fill="#E49D82" opacity="1.000000" stroke="none" 
	d="
M275.891235,248.113266 
	C274.121979,246.327454 272.523346,244.856323 271.106415,243.227142 
	C267.822601,239.451431 267.989868,235.120224 271.443970,231.672913 
	C274.689423,228.433853 279.125458,227.994171 282.613831,231.358276 
	C290.037140,238.517166 297.253845,245.903168 304.296509,253.437943 
	C307.326111,256.679260 306.565063,261.587555 303.219635,264.612183 
	C299.948547,267.569580 295.858704,267.738220 292.447235,264.523254 
	C286.879333,259.276001 281.565460,253.759216 275.891235,248.113266 
z"/>
<path fill="#E79F84" opacity="1.000000" stroke="none" 
	d="
M119.903030,69.097519 
	C124.142227,73.339447 128.209778,77.258003 132.076508,81.365601 
	C135.918243,85.446632 135.897156,89.573509 132.299728,93.232819 
	C128.820709,96.771690 124.442307,96.775436 120.396645,92.902359 
	C113.557175,86.354683 106.787758,79.728790 100.149399,72.977951 
	C96.154808,68.915665 96.245651,64.443077 99.988533,60.650017 
	C103.396523,57.196339 107.786926,57.314011 111.880730,61.127884 
	C114.550957,63.615513 117.061386,66.274658 119.903030,69.097519 
z"/>
<path fill="#E69F83" opacity="1.000000" stroke="none" 
	d="
M98.278366,261.668518 
	C96.508385,257.751099 97.844406,254.786453 100.318336,252.298752 
	C107.106766,245.472519 113.939194,238.686447 120.895279,232.031967 
	C124.508522,228.575409 129.417419,228.617844 132.527969,231.761383 
	C135.826813,235.095261 135.985611,239.598404 132.419998,243.308914 
	C125.640884,250.363525 118.732201,257.301971 111.676056,264.079102 
	C106.984505,268.585144 102.982063,267.811768 98.278366,261.668518 
z"/>
<path fill="#E49E82" opacity="1.000000" stroke="none" 
	d="
M87.966652,153.915314 
	C90.788445,153.921387 93.120918,153.841171 95.444412,153.950958 
	C100.750900,154.201706 104.252487,157.497833 104.314659,162.182602 
	C104.374527,166.694687 100.845398,170.437683 95.629883,170.714890 
	C89.990448,171.014633 84.324417,170.821960 78.669975,170.828491 
	C74.844803,170.832916 71.009529,170.982697 67.196785,170.759567 
	C61.485580,170.425339 58.347004,167.102386 58.537964,161.971115 
	C58.714630,157.223816 62.096382,154.069107 67.515953,153.958893 
	C74.165932,153.823654 80.820610,153.919418 87.966652,153.915314 
z"/>
<path fill="#E9A185" opacity="1.000000" stroke="none" 
	d="
M194.993927,60.768944 
	C194.445984,58.346134 193.870255,56.242474 193.843658,54.131893 
	C193.736755,45.649574 193.759796,37.164856 193.813354,28.681522 
	C193.852310,22.508362 196.877884,18.831530 201.847427,18.719908 
	C206.791626,18.608854 210.109299,22.380491 210.154251,28.405525 
	C210.221298,37.387718 210.094269,46.371696 210.201553,55.353104 
	C210.250687,59.467377 208.775803,62.564560 204.909256,64.064346 
	C201.026184,65.570541 197.759705,64.323372 194.993927,60.768944 
z"/>
<path fill="#040302" opacity="1.000000" stroke="none" 
	d="
M142.072998,171.479401 
	C138.347656,135.398438 163.886108,105.326843 199.619263,103.177147 
	C237.364944,100.906380 268.690338,136.938889 261.413666,174.054398 
	C259.070190,186.007446 253.906754,196.300476 245.473572,205.073395 
	C235.786636,215.150574 229.276642,227.014359 226.784332,240.818497 
	C225.996902,245.179810 224.089844,246.765411 219.796707,246.326965 
	C216.838882,246.024887 213.825272,246.268982 210.336227,246.268982 
	C210.200180,244.582108 209.988770,243.162491 209.986160,241.742477 
	C209.961075,228.079178 209.833298,214.413071 210.104141,200.755096 
	C210.150375,198.423431 211.443466,195.680679 213.027832,193.899170 
	C217.339081,189.051437 222.173752,184.673737 226.689026,180.001541 
	C230.499893,176.058197 230.750595,171.332199 227.534225,167.980865 
	C223.999924,164.298309 219.492966,164.428513 215.195557,168.519974 
	C211.821396,171.732437 208.404510,174.938141 205.375290,178.463608 
	C202.564255,181.735138 200.515274,181.399261 197.831909,178.333786 
	C194.765930,174.831253 191.352463,171.619858 187.960999,168.418610 
	C183.798477,164.489532 179.529877,164.325134 176.010986,167.758347 
	C172.396240,171.285141 172.560196,175.854797 176.682800,180.063797 
	C181.457932,184.938965 186.522156,189.538635 191.153473,194.542404 
	C192.562134,196.064377 193.663422,198.516754 193.695938,200.562225 
	C193.915710,214.388718 193.709702,228.221619 193.880386,242.049484 
	C193.924255,245.604019 192.651077,246.605331 189.252182,246.656845 
	C178.794891,246.815369 178.783997,246.937469 176.080688,237.009125 
	C173.060089,225.915527 168.087265,215.794769 160.232697,207.369186 
	C150.782120,197.231628 144.355438,185.692520 142.072998,171.479401 
z"/>
</svg>