<svg version="1.1" id="Layer_1" xmlns="http://www.w3.org/2000/svg" xmlns:xlink="http://www.w3.org/1999/xlink" x="0px" y="0px"
	 width="100%" viewBox="0 0 814 502" enable-background="new 0 0 814 502" xml:space="preserve">
<path fill="#010000" opacity="1.000000" stroke="none" 
	d="
M605.000000,503.000000 
	C403.333374,503.000000 202.166733,503.000000 1.000081,503.000000 
	C1.000054,335.666718 1.000054,168.333466 1.000027,1.000148 
	C272.333221,1.000099 543.666443,1.000099 814.999756,1.000049 
	C814.999817,168.333191 814.999817,335.666382 814.999878,502.999786 
	C745.166687,503.000000 675.333313,503.000000 605.000000,503.000000 
M410.386261,86.384071 
	C395.697906,85.951843 381.920410,89.320549 369.381195,96.954964 
	C326.201935,123.244331 318.426819,178.973129 352.650604,216.459732 
	C360.246063,224.779327 365.392700,234.275543 367.431885,245.386765 
	C369.564728,257.008270 377.058960,263.396271 388.895142,263.451843 
	C402.058899,263.513672 415.223389,263.513824 428.387115,263.448212 
	C439.896118,263.390778 447.799866,257.238617 449.869965,245.856125 
	C452.036041,233.946014 457.699188,224.250763 465.722443,215.364731 
	C482.617645,196.652664 489.139984,174.471558 484.752411,149.694168 
	C478.116760,112.221611 445.420959,87.148918 410.386261,86.384071 
M681.745239,413.857605 
	C690.529236,439.251007 699.313293,464.644409 708.144287,490.173615 
	C712.931152,490.173615 717.448975,489.847931 721.895935,490.269440 
	C725.969116,490.655487 727.715332,489.191986 728.843323,485.333008 
	C732.376465,473.246307 736.288452,461.270325 740.424377,448.068268 
	C743.602478,458.222198 746.366211,467.198517 749.230530,476.142609 
	C750.690796,480.702362 751.071167,486.922089 754.244385,489.250336 
	C757.432251,491.589355 763.508606,489.772217 768.271057,490.253052 
	C772.167786,490.646484 773.715698,489.042603 774.909546,485.520538 
	C783.435852,460.367249 792.172546,435.285309 800.818848,410.172607 
	C801.342224,408.652405 801.664062,407.062805 802.172119,405.158997 
	C795.229736,405.158997 788.736145,405.341400 782.260559,405.078979 
	C779.203674,404.955109 777.925171,406.073059 777.041382,408.859131 
	C773.375488,420.414337 769.523438,431.910736 765.699402,443.415344 
	C765.176453,444.988770 764.425964,446.486542 763.468445,448.761444 
	C758.688965,433.636292 754.201111,419.433960 749.748657,405.343872 
	C743.325439,405.343872 737.359436,405.343872 731.274597,405.343872 
	C726.800232,419.779510 722.367004,434.082306 717.632996,449.355499 
	C712.455261,433.941345 707.647827,419.629578 702.856323,405.365051 
	C694.830750,405.365051 687.062988,405.365051 678.835754,405.365051 
	C679.758179,408.163849 680.578613,410.653412 681.745239,413.857605 
M471.381531,461.499756 
	C471.381531,470.948944 471.381531,480.398163 471.381531,489.806946 
	C479.692535,489.806946 487.408661,489.806946 495.586548,489.806946 
	C495.586548,474.390045 495.586548,459.337097 495.586548,443.787567 
	C513.944519,443.787567 531.833862,443.787567 549.590454,443.787567 
	C549.590454,436.027252 549.590454,428.779938 549.590454,421.000153 
	C531.391174,421.000153 513.502258,421.000153 495.713531,421.000153 
	C495.713531,411.708466 495.713531,402.962616 495.713531,393.658997 
	C513.901184,393.658997 531.786438,393.658997 549.627563,393.658997 
	C549.627563,385.836609 549.627563,378.582855 549.627563,371.316406 
	C523.472412,371.316406 497.599426,371.316406 471.381592,371.316406 
	C471.381592,401.258759 471.381592,430.879242 471.381531,461.499756 
M268.427277,457.500366 
	C268.427277,439.784546 268.427277,422.068756 268.427277,404.343567 
	C260.415192,404.343567 253.281281,404.343567 246.203995,404.343567 
	C245.757156,405.836761 245.366196,407.143188 244.963730,408.488068 
	C221.527969,398.651398 202.696396,407.407593 191.868408,420.722717 
	C180.023621,435.288239 179.317703,456.175018 189.672928,472.005463 
	C194.657211,479.625122 201.503632,484.980011 209.944244,488.300964 
	C221.852325,492.986298 233.651154,492.251373 245.178925,487.090851 
	C246.662674,490.398773 259.717834,491.525085 268.427124,489.345978 
	C268.427124,479.117371 268.427124,468.808899 268.427277,457.500366 
M180.017929,450.512848 
	C179.991760,448.848175 180.014740,447.181091 179.932053,445.519226 
	C178.644623,419.645050 153.919067,400.037109 129.039230,405.502014 
	C111.225868,409.414734 99.180801,420.168915 95.184273,438.157654 
	C91.117897,456.460724 97.199646,471.649445 112.215332,482.937683 
	C128.831421,495.429047 155.329178,492.696228 168.068817,477.231567 
	C162.903793,472.345276 157.726944,467.447815 152.606232,462.603455 
	C139.039978,471.346649 124.905800,469.723938 120.492569,459.002838 
	C130.358948,459.002838 140.174469,459.002869 149.989990,459.002869 
	C159.914291,459.002869 169.838593,459.002838 180.018066,459.002838 
	C180.018066,456.093872 180.018066,453.786072 180.017929,450.512848 
M644.150085,491.010529 
	C667.891052,486.738159 682.722229,468.963654 681.958557,445.698822 
	C681.248718,424.077698 664.605469,406.549347 641.992493,404.519531 
	C624.750732,402.971893 611.041138,409.888123 601.785034,424.544678 
	C592.658997,438.995087 592.245056,454.225555 600.617859,469.042572 
	C609.876587,485.427582 624.540833,492.404236 644.150085,491.010529 
M338.141418,489.239532 
	C345.613525,489.683960 353.085602,490.128387 361.016113,490.600098 
	C361.016113,488.104645 361.016266,486.474304 361.016052,484.843933 
	C361.014435,471.524750 360.958435,458.205292 361.032379,444.886536 
	C361.073486,437.478973 365.859497,431.500122 372.676117,430.009369 
	C380.147003,428.375519 387.514374,431.753693 390.415894,438.665344 
	C391.532959,441.326355 391.920776,444.457855 391.952179,447.382385 
	C392.103668,461.490662 392.020386,475.601410 392.020386,489.915283 
	C399.838501,489.915283 407.219360,489.915283 414.778717,489.915283 
	C414.778717,473.551605 415.584625,457.389954 414.558899,441.345367 
	C413.466858,424.263672 401.732361,411.919281 385.033722,407.854797 
	C376.970428,405.892212 369.040344,406.797852 361.218475,409.619476 
	C361.038513,407.647675 360.892120,406.043671 360.753967,404.530029 
	C353.069244,404.530029 345.673248,404.530029 338.065979,404.530029 
	C338.065979,432.691010 338.065979,460.483154 338.141418,489.239532 
M27.326195,374.952148 
	C25.430908,375.569977 23.574867,376.503052 21.632765,376.744781 
	C16.406578,377.395355 15.345551,380.225922 15.383727,385.225006 
	C15.635685,418.217712 15.518700,451.213257 15.521903,484.207855 
	C15.522088,486.110809 15.521928,488.013733 15.521928,489.944641 
	C41.764301,489.944641 67.196983,489.944641 92.864349,489.944641 
	C92.864349,482.465546 92.864349,475.219269 92.864349,467.370789 
	C75.099846,467.370789 57.536076,467.370789 39.477493,467.370789 
	C39.477493,435.046265 39.477493,403.319244 39.477493,371.040649 
	C35.269611,372.407928 31.679516,373.574493 27.326195,374.952148 
M560.999512,468.499878 
	C560.999512,475.609009 560.999512,482.718109 560.999512,489.906647 
	C568.893372,489.906647 576.285156,489.906647 583.854980,489.906647 
	C583.854980,448.936310 583.854980,408.226196 583.854980,367.142334 
	C577.630798,369.192688 571.718933,371.332153 565.687744,373.054047 
	C562.139893,374.066956 560.867004,375.715485 560.892944,379.603241 
	C561.088379,408.901123 560.999512,438.200836 560.999512,468.499878 
M429.935516,308.771362 
	C431.347565,307.345581 432.523254,305.474121 434.215485,304.576660 
	C439.539612,301.753052 442.611298,297.682617 442.666351,291.553375 
	C442.691742,288.727203 442.770691,285.896515 442.653107,283.075073 
	C442.424316,277.583923 439.502960,274.282806 433.961609,274.222656 
	C417.005096,274.038574 400.044861,274.094116 383.086975,274.197266 
	C378.223053,274.226837 375.236481,277.162842 374.683472,281.806915 
	C374.216675,285.726837 373.736206,290.075378 374.964508,293.648987 
	C376.261017,297.421051 378.913330,301.568787 382.185486,303.591278 
	C385.691803,305.758484 387.306183,308.155121 388.223633,311.774597 
	C389.805634,318.015625 393.190125,320.645020 399.589203,320.735535 
	C404.908600,320.810822 410.229858,320.760284 415.550293,320.754547 
	C424.669586,320.744690 427.436462,318.559631 429.935516,308.771362 
M285.754181,433.384796 
	C284.503235,438.356720 282.394409,443.290375 282.170563,448.308105 
	C281.614746,460.767944 281.910248,473.266113 281.890350,485.748932 
	C281.888092,487.174316 282.054504,488.599945 282.134216,489.888275 
	C289.864532,489.888275 297.122375,489.888275 304.819275,489.888275 
	C304.819275,477.331543 304.903870,465.053253 304.783386,452.777008 
	C304.723663,446.691345 306.512909,441.294952 310.151154,436.537994 
	C315.420898,429.647766 322.683136,426.411591 331.189789,425.874634 
	C331.189789,418.157349 331.189789,410.732513 331.189789,402.881104 
	C310.116699,404.179077 295.196106,414.028687 285.754181,433.384796 
M523.537964,154.209442 
	C521.044922,154.213745 518.547913,154.129684 516.059570,154.240128 
	C510.254364,154.497742 506.402985,158.111481 506.597321,163.003159 
	C506.789276,167.834930 510.430420,171.084229 516.085999,171.146103 
	C525.059998,171.244308 534.036621,171.246613 543.010620,171.148392 
	C548.904541,171.083893 552.405273,167.787811 552.484375,162.558578 
	C552.565430,157.199005 549.436096,154.367020 542.974487,154.243027 
	C536.827087,154.125046 530.675781,154.212479 523.537964,154.209442 
M489.178040,70.678444 
	C485.423767,74.458229 481.522705,78.105591 477.958801,82.057076 
	C474.740234,85.625702 475.032776,90.049606 478.255829,93.229553 
	C481.490753,96.421242 486.187744,97.010513 489.508209,93.859749 
	C496.993286,86.757133 504.300934,79.450233 511.370575,71.934639 
	C514.740662,68.351936 514.210083,63.942013 510.864868,60.790749 
	C507.356689,57.485886 502.840698,57.334183 499.237091,60.667690 
	C495.939789,63.717800 492.859039,67.001984 489.178040,70.678444 
M487.633301,252.872604 
	C491.653351,256.862946 495.546356,260.992981 499.733795,264.799225 
	C503.056183,267.819153 506.755890,267.540802 510.138184,264.692566 
	C513.467590,261.888947 514.495422,256.949799 511.707153,253.944351 
	C504.346649,246.010620 496.784851,238.239349 488.917358,230.812103 
	C485.685638,227.761185 481.185242,228.683868 478.179504,231.908173 
	C474.983093,235.336945 474.801880,239.559372 478.008118,243.108398 
	C480.908691,246.319138 484.076660,249.288330 487.633301,252.872604 
M417.206329,44.469818 
	C417.180023,38.487656 417.313782,32.499107 417.075470,26.525406 
	C416.893036,21.952202 413.283813,18.681952 409.000702,18.687048 
	C404.693726,18.692171 400.992950,21.952049 400.906097,26.495403 
	C400.712402,36.628311 400.706757,46.769745 400.892761,56.902779 
	C400.977844,61.536472 404.533905,64.640244 408.972504,64.645340 
	C413.408112,64.650444 416.818115,61.555153 417.092651,56.917679 
	C417.318237,53.107723 417.181915,49.276344 417.206329,44.469818 
M314.058594,58.313026 
	C309.613983,57.721600 306.801056,59.846588 304.977844,63.702911 
	C303.078430,67.720459 304.803436,70.767891 307.573181,73.506180 
	C314.073517,79.932671 320.555573,86.379105 327.144409,92.714058 
	C331.384338,96.790581 335.907501,96.856628 339.438995,93.143784 
	C343.034393,89.363823 342.856567,85.163506 338.678101,80.863464 
	C333.470764,75.504662 328.204712,70.197685 322.814117,65.024544 
	C320.329224,62.639923 317.488190,60.626408 314.058594,58.313026 
M325.185852,257.686310 
	C330.107300,252.742020 335.173767,247.931381 339.898376,242.805664 
	C342.963043,239.480820 342.767242,235.045593 339.731903,231.985977 
	C336.636475,228.865784 332.480865,228.128464 329.355743,230.943924 
	C321.338837,238.166458 313.673523,245.806747 306.230164,253.625153 
	C303.142548,256.868347 303.940521,261.212311 307.181091,264.344482 
	C310.430573,267.485291 314.417694,267.775757 317.934570,264.818237 
	C320.342133,262.793579 322.458496,260.422577 325.185852,257.686310 
M297.383606,170.841461 
	C298.716064,170.838470 300.050171,170.877914 301.380676,170.825241 
	C307.482422,170.583710 311.597290,166.916641 311.359924,161.962738 
	C311.123077,157.019241 307.362244,153.973740 301.240265,153.934113 
	C292.746246,153.879135 284.251404,153.884811 275.757263,153.929504 
	C269.129486,153.964386 265.588013,156.876144 265.506104,162.218994 
	C265.419556,167.865875 268.855316,170.755783 275.929108,170.823624 
	C282.757324,170.889114 289.586639,170.840103 297.383606,170.841461 
z"/>
<path fill="#E9A185" opacity="1.000000" stroke="none" 
	d="
M410.856567,86.418480 
	C445.420959,87.148918 478.116760,112.221611 484.752411,149.694168 
	C489.139984,174.471558 482.617645,196.652664 465.722443,215.364731 
	C457.699188,224.250763 452.036041,233.946014 449.869965,245.856125 
	C447.799866,257.238617 439.896118,263.390778 428.387115,263.448212 
	C415.223389,263.513824 402.058899,263.513672 388.895142,263.451843 
	C377.058960,263.396271 369.564728,257.008270 367.431885,245.386765 
	C365.392700,234.275543 360.246063,224.779327 352.650604,216.459732 
	C318.426819,178.973129 326.201935,123.244331 369.381195,96.954964 
	C381.920410,89.320549 395.697906,85.951843 410.856567,86.418480 
M385.028534,108.292236 
	C345.472443,127.353302 336.465485,172.971848 365.880615,205.720612 
	C374.042114,214.807083 379.818909,225.096558 383.049835,236.860641 
	C385.785736,246.822235 385.823669,246.653564 396.098724,246.637497 
	C399.853821,246.631622 400.941864,245.392334 400.890900,241.707260 
	C400.702057,228.053329 400.938232,214.393005 400.690155,200.740967 
	C400.650452,198.556488 399.434998,195.958206 397.928833,194.316772 
	C393.322327,189.296692 388.276978,184.681732 383.466919,179.844971 
	C380.823608,177.187027 379.457458,174.119095 381.185608,170.369141 
	C383.783264,164.732330 389.965363,163.644287 394.762238,168.278397 
	C399.285736,172.648468 403.469055,177.370712 408.593201,182.772034 
	C413.566986,177.543854 417.686737,173.018738 422.022491,168.711075 
	C426.307068,164.454300 430.700592,164.235016 434.339905,167.777496 
	C437.841339,171.185684 437.601990,175.964600 433.548218,180.140442 
	C429.024628,184.800339 424.190613,189.175583 419.895203,194.031662 
	C418.324829,195.807007 417.157104,198.587738 417.099152,200.941681 
	C416.816315,212.426193 416.970825,223.921478 416.970642,235.412949 
	C416.970581,238.858643 416.970642,242.304352 416.970642,246.263428 
	C420.709595,246.263428 423.855011,246.035309 426.953247,246.320251 
	C430.973022,246.689957 432.909515,245.370056 433.679840,241.151276 
	C436.358521,226.481232 443.694763,214.290222 453.864777,203.469055 
	C471.470245,184.736374 474.316589,155.709702 461.464600,133.482651 
	C448.162567,110.477356 417.800232,94.974281 385.028534,108.292236 
z"/>
<path fill="#EBE4BE" opacity="1.000000" stroke="none" 
	d="
M681.572144,413.500305 
	C680.578613,410.653412 679.758179,408.163849 678.835754,405.365051 
	C687.062988,405.365051 694.830750,405.365051 702.856323,405.365051 
	C707.647827,419.629578 712.455261,433.941345 717.632996,449.355499 
	C722.367004,434.082306 726.800232,419.779510 731.274597,405.343872 
	C737.359436,405.343872 743.325439,405.343872 749.748657,405.343872 
	C754.201111,419.433960 758.688965,433.636292 763.468445,448.761444 
	C764.425964,446.486542 765.176453,444.988770 765.699402,443.415344 
	C769.523438,431.910736 773.375488,420.414337 777.041382,408.859131 
	C777.925171,406.073059 779.203674,404.955109 782.260559,405.078979 
	C788.736145,405.341400 795.229736,405.158997 802.172119,405.158997 
	C801.664062,407.062805 801.342224,408.652405 800.818848,410.172607 
	C792.172546,435.285309 783.435852,460.367249 774.909546,485.520538 
	C773.715698,489.042603 772.167786,490.646484 768.271057,490.253052 
	C763.508606,489.772217 757.432251,491.589355 754.244385,489.250336 
	C751.071167,486.922089 750.690796,480.702362 749.230530,476.142609 
	C746.366211,467.198517 743.602478,458.222198 740.424377,448.068268 
	C736.288452,461.270325 732.376465,473.246307 728.843323,485.333008 
	C727.715332,489.191986 725.969116,490.655487 721.895935,490.269440 
	C717.448975,489.847931 712.931152,490.173615 708.144287,490.173615 
	C699.313293,464.644409 690.529236,439.251007 681.572144,413.500305 
z"/>
<path fill="#EBCCA9" opacity="1.000000" stroke="none" 
	d="
M471.381561,460.999756 
	C471.381592,430.879242 471.381592,401.258759 471.381592,371.316406 
	C497.599426,371.316406 523.472412,371.316406 549.627563,371.316406 
	C549.627563,378.582855 549.627563,385.836609 549.627563,393.658997 
	C531.786438,393.658997 513.901184,393.658997 495.713531,393.658997 
	C495.713531,402.962616 495.713531,411.708466 495.713531,421.000153 
	C513.502258,421.000153 531.391174,421.000153 549.590454,421.000153 
	C549.590454,428.779938 549.590454,436.027252 549.590454,443.787567 
	C531.833862,443.787567 513.944519,443.787567 495.586548,443.787567 
	C495.586548,459.337097 495.586548,474.390045 495.586548,489.806946 
	C487.408661,489.806946 479.692535,489.806946 471.381531,489.806946 
	C471.381531,480.398163 471.381531,470.948944 471.381561,460.999756 
z"/>
<path fill="#EEB596" opacity="1.000000" stroke="none" 
	d="
M268.427185,458.000366 
	C268.427124,468.808899 268.427124,479.117371 268.427124,489.345978 
	C259.717834,491.525085 246.662674,490.398773 245.178925,487.090851 
	C233.651154,492.251373 221.852325,492.986298 209.944244,488.300964 
	C201.503632,484.980011 194.657211,479.625122 189.672928,472.005463 
	C179.317703,456.175018 180.023621,435.288239 191.868408,420.722717 
	C202.696396,407.407593 221.527969,398.651398 244.963730,408.488068 
	C245.366196,407.143188 245.757156,405.836761 246.203995,404.343567 
	C253.281281,404.343567 260.415192,404.343567 268.427277,404.343567 
	C268.427277,422.068756 268.427277,439.784546 268.427185,458.000366 
M242.198120,460.617554 
	C249.709305,449.278534 247.332138,437.312103 236.126083,430.051361 
	C227.239487,424.293396 214.285767,427.610535 208.323471,437.170929 
	C202.765823,446.082489 204.987274,457.548584 213.583450,464.320618 
	C222.051331,470.991638 233.212646,469.769409 242.198120,460.617554 
z"/>
<path fill="#EFAE90" opacity="1.000000" stroke="none" 
	d="
M180.018005,450.995544 
	C180.018066,453.786072 180.018066,456.093872 180.018066,459.002838 
	C169.838593,459.002838 159.914291,459.002869 149.989990,459.002869 
	C140.174469,459.002869 130.358948,459.002838 120.492569,459.002838 
	C124.905800,469.723938 139.039978,471.346649 152.606232,462.603455 
	C157.726944,467.447815 162.903793,472.345276 168.068817,477.231567 
	C155.329178,492.696228 128.831421,495.429047 112.215332,482.937683 
	C97.199646,471.649445 91.117897,456.460724 95.184273,438.157654 
	C99.180801,420.168915 111.225868,409.414734 129.039230,405.502014 
	C153.919067,400.037109 178.644623,419.645050 179.932053,445.519226 
	C180.014740,447.181091 179.991760,448.848175 180.018005,450.995544 
M151.216965,432.376190 
	C139.729431,423.695679 124.598824,425.723419 120.420815,436.491333 
	C131.562088,436.491333 142.703354,436.491333 154.497467,436.491333 
	C153.306610,434.928101 152.533218,433.912872 151.216965,432.376190 
z"/>
<path fill="#ECDEB8" opacity="1.000000" stroke="none" 
	d="
M643.688538,491.054901 
	C624.540833,492.404236 609.876587,485.427582 600.617859,469.042572 
	C592.245056,454.225555 592.658997,438.995087 601.785034,424.544678 
	C611.041138,409.888123 624.750732,402.971893 641.992493,404.519531 
	C664.605469,406.549347 681.248718,424.077698 681.958557,445.698822 
	C682.722229,468.963654 667.891052,486.738159 643.688538,491.054901 
M658.838074,444.980774 
	C658.241089,443.081360 657.819153,441.104340 657.017212,439.295807 
	C653.324158,430.966827 643.761108,425.777863 635.455383,427.481750 
	C625.045288,429.617340 617.974915,437.457642 617.901611,446.947083 
	C617.809265,458.900391 626.715881,468.282928 638.271301,468.405151 
	C650.341248,468.532837 659.147766,458.911957 658.838074,444.980774 
z"/>
<path fill="#EDC6A4" opacity="1.000000" stroke="none" 
	d="
M338.103699,488.757385 
	C338.065979,460.483154 338.065979,432.691010 338.065979,404.530029 
	C345.673248,404.530029 353.069244,404.530029 360.753967,404.530029 
	C360.892120,406.043671 361.038513,407.647675 361.218475,409.619476 
	C369.040344,406.797852 376.970428,405.892212 385.033722,407.854797 
	C401.732361,411.919281 413.466858,424.263672 414.558899,441.345367 
	C415.584625,457.389954 414.778717,473.551605 414.778717,489.915283 
	C407.219360,489.915283 399.838501,489.915283 392.020386,489.915283 
	C392.020386,475.601410 392.103668,461.490662 391.952179,447.382385 
	C391.920776,444.457855 391.532959,441.326355 390.415894,438.665344 
	C387.514374,431.753693 380.147003,428.375519 372.676117,430.009369 
	C365.859497,431.500122 361.073486,437.478973 361.032379,444.886536 
	C360.958435,458.205292 361.014435,471.524750 361.016052,484.843933 
	C361.016266,486.474304 361.016113,488.104645 361.016113,490.600098 
	C353.085602,490.128387 345.613525,489.683960 338.103699,488.757385 
z"/>
<path fill="#EDA487" opacity="1.000000" stroke="none" 
	d="
M27.707809,374.846588 
	C31.679516,373.574493 35.269611,372.407928 39.477493,371.040649 
	C39.477493,403.319244 39.477493,435.046265 39.477493,467.370789 
	C57.536076,467.370789 75.099846,467.370789 92.864349,467.370789 
	C92.864349,475.219269 92.864349,482.465546 92.864349,489.944641 
	C67.196983,489.944641 41.764301,489.944641 15.521928,489.944641 
	C15.521928,488.013733 15.522088,486.110809 15.521903,484.207855 
	C15.518700,451.213257 15.635685,418.217712 15.383727,385.225006 
	C15.345551,380.225922 16.406578,377.395355 21.632765,376.744781 
	C23.574867,376.503052 25.430908,375.569977 27.707809,374.846588 
z"/>
<path fill="#EED7B3" opacity="1.000000" stroke="none" 
	d="
M560.999512,467.999939 
	C560.999512,438.200836 561.088379,408.901123 560.892944,379.603241 
	C560.867004,375.715485 562.139893,374.066956 565.687744,373.054047 
	C571.718933,371.332153 577.630798,369.192688 583.854980,367.142334 
	C583.854980,408.226196 583.854980,448.936310 583.854980,489.906647 
	C576.285156,489.906647 568.893372,489.906647 560.999512,489.906647 
	C560.999512,482.718109 560.999512,475.609009 560.999512,467.999939 
z"/>
<path fill="#EBA286" opacity="1.000000" stroke="none" 
	d="
M429.857056,309.154785 
	C427.436462,318.559631 424.669586,320.744690 415.550293,320.754547 
	C410.229858,320.760284 404.908600,320.810822 399.589203,320.735535 
	C393.190125,320.645020 389.805634,318.015625 388.223633,311.774597 
	C387.306183,308.155121 385.691803,305.758484 382.185486,303.591278 
	C378.913330,301.568787 376.261017,297.421051 374.964508,293.648987 
	C373.736206,290.075378 374.216675,285.726837 374.683472,281.806915 
	C375.236481,277.162842 378.223053,274.226837 383.086975,274.197266 
	C400.044861,274.094116 417.005096,274.038574 433.961609,274.222656 
	C439.502960,274.282806 442.424316,277.583923 442.653107,283.075073 
	C442.770691,285.896515 442.691742,288.727203 442.666351,291.553375 
	C442.611298,297.682617 439.539612,301.753052 434.215485,304.576660 
	C432.523254,305.474121 431.347565,307.345581 429.857056,309.154785 
z"/>
<path fill="#EEBD9C" opacity="1.000000" stroke="none" 
	d="
M285.891571,433.029297 
	C295.196106,414.028687 310.116699,404.179077 331.189789,402.881104 
	C331.189789,410.732513 331.189789,418.157349 331.189789,425.874634 
	C322.683136,426.411591 315.420898,429.647766 310.151154,436.537994 
	C306.512909,441.294952 304.723663,446.691345 304.783386,452.777008 
	C304.903870,465.053253 304.819275,477.331543 304.819275,489.888275 
	C297.122375,489.888275 289.864532,489.888275 282.134216,489.888275 
	C282.054504,488.599945 281.888092,487.174316 281.890350,485.748932 
	C281.910248,473.266113 281.614746,460.767944 282.170563,448.308105 
	C282.394409,443.290375 284.503235,438.356720 285.891571,433.029297 
z"/>
<path fill="#E49E82" opacity="1.000000" stroke="none" 
	d="
M524.032104,154.209534 
	C530.675781,154.212479 536.827087,154.125046 542.974487,154.243027 
	C549.436096,154.367020 552.565430,157.199005 552.484375,162.558578 
	C552.405273,167.787811 548.904541,171.083893 543.010620,171.148392 
	C534.036621,171.246613 525.059998,171.244308 516.085999,171.146103 
	C510.430420,171.084229 506.789276,167.834930 506.597321,163.003159 
	C506.402985,158.111481 510.254364,154.497742 516.059570,154.240128 
	C518.547913,154.129684 521.044922,154.213745 524.032104,154.209534 
z"/>
<path fill="#E59E83" opacity="1.000000" stroke="none" 
	d="
M489.430420,70.430725 
	C492.859039,67.001984 495.939789,63.717800 499.237091,60.667690 
	C502.840698,57.334183 507.356689,57.485886 510.864868,60.790749 
	C514.210083,63.942013 514.740662,68.351936 511.370575,71.934639 
	C504.300934,79.450233 496.993286,86.757133 489.508209,93.859749 
	C486.187744,97.010513 481.490753,96.421242 478.255829,93.229553 
	C475.032776,90.049606 474.740234,85.625702 477.958801,82.057076 
	C481.522705,78.105591 485.423767,74.458229 489.430420,70.430725 
z"/>
<path fill="#E49D82" opacity="1.000000" stroke="none" 
	d="
M487.380005,252.618317 
	C484.076660,249.288330 480.908691,246.319138 478.008118,243.108398 
	C474.801880,239.559372 474.983093,235.336945 478.179504,231.908173 
	C481.185242,228.683868 485.685638,227.761185 488.917358,230.812103 
	C496.784851,238.239349 504.346649,246.010620 511.707153,253.944351 
	C514.495422,256.949799 513.467590,261.888947 510.138184,264.692566 
	C506.755890,267.540802 503.056183,267.819153 499.733795,264.799225 
	C495.546356,260.992981 491.653351,256.862946 487.380005,252.618317 
z"/>
<path fill="#E9A185" opacity="1.000000" stroke="none" 
	d="
M417.206146,44.962139 
	C417.181915,49.276344 417.318237,53.107723 417.092651,56.917679 
	C416.818115,61.555153 413.408112,64.650444 408.972504,64.645340 
	C404.533905,64.640244 400.977844,61.536472 400.892761,56.902779 
	C400.706757,46.769745 400.712402,36.628311 400.906097,26.495403 
	C400.992950,21.952049 404.693726,18.692171 409.000702,18.687048 
	C413.283813,18.681952 416.893036,21.952202 417.075470,26.525406 
	C417.313782,32.499107 417.180023,38.487656 417.206146,44.962139 
z"/>
<path fill="#E79F84" opacity="1.000000" stroke="none" 
	d="
M314.433594,58.378822 
	C317.488190,60.626408 320.329224,62.639923 322.814117,65.024544 
	C328.204712,70.197685 333.470764,75.504662 338.678101,80.863464 
	C342.856567,85.163506 343.034393,89.363823 339.438995,93.143784 
	C335.907501,96.856628 331.384338,96.790581 327.144409,92.714058 
	C320.555573,86.379105 314.073517,79.932671 307.573181,73.506180 
	C304.803436,70.767891 303.078430,67.720459 304.977844,63.702911 
	C306.801056,59.846588 309.613983,57.721600 314.433594,58.378822 
z"/>
<path fill="#E59E83" opacity="1.000000" stroke="none" 
	d="
M324.945435,257.946350 
	C322.458496,260.422577 320.342133,262.793579 317.934570,264.818237 
	C314.417694,267.775757 310.430573,267.485291 307.181091,264.344482 
	C303.940521,261.212311 303.142548,256.868347 306.230164,253.625153 
	C313.673523,245.806747 321.338837,238.166458 329.355743,230.943924 
	C332.480865,228.128464 336.636475,228.865784 339.731903,231.985977 
	C342.767242,235.045593 342.963043,239.480820 339.898376,242.805664 
	C335.173767,247.931381 330.107300,252.742020 324.945435,257.946350 
z"/>
<path fill="#E49E82" opacity="1.000000" stroke="none" 
	d="
M296.899536,170.841431 
	C289.586639,170.840103 282.757324,170.889114 275.929108,170.823624 
	C268.855316,170.755783 265.419556,167.865875 265.506104,162.218994 
	C265.588013,156.876144 269.129486,153.964386 275.757263,153.929504 
	C284.251404,153.884811 292.746246,153.879135 301.240265,153.934113 
	C307.362244,153.973740 311.123077,157.019241 311.359924,161.962738 
	C311.597290,166.916641 307.482422,170.583710 301.380676,170.825241 
	C300.050171,170.877914 298.716064,170.838470 296.899536,170.841431 
z"/>
<path fill="#040302" opacity="1.000000" stroke="none" 
	d="
M385.377808,108.129021 
	C417.800232,94.974281 448.162567,110.477356 461.464600,133.482651 
	C474.316589,155.709702 471.470245,184.736374 453.864777,203.469055 
	C443.694763,214.290222 436.358521,226.481232 433.679840,241.151276 
	C432.909515,245.370056 430.973022,246.689957 426.953247,246.320251 
	C423.855011,246.035309 420.709595,246.263428 416.970642,246.263428 
	C416.970642,242.304352 416.970581,238.858643 416.970642,235.412949 
	C416.970825,223.921478 416.816315,212.426193 417.099152,200.941681 
	C417.157104,198.587738 418.324829,195.807007 419.895203,194.031662 
	C424.190613,189.175583 429.024628,184.800339 433.548218,180.140442 
	C437.601990,175.964600 437.841339,171.185684 434.339905,167.777496 
	C430.700592,164.235016 426.307068,164.454300 422.022491,168.711075 
	C417.686737,173.018738 413.566986,177.543854 408.593201,182.772034 
	C403.469055,177.370712 399.285736,172.648468 394.762238,168.278397 
	C389.965363,163.644287 383.783264,164.732330 381.185608,170.369141 
	C379.457458,174.119095 380.823608,177.187027 383.466919,179.844971 
	C388.276978,184.681732 393.322327,189.296692 397.928833,194.316772 
	C399.434998,195.958206 400.650452,198.556488 400.690155,200.740967 
	C400.938232,214.393005 400.702057,228.053329 400.890900,241.707260 
	C400.941864,245.392334 399.853821,246.631622 396.098724,246.637497 
	C385.823669,246.653564 385.785736,246.822235 383.049835,236.860641 
	C379.818909,225.096558 374.042114,214.807083 365.880615,205.720612 
	C336.465485,172.971848 345.472443,127.353302 385.377808,108.129021 
z"/>
<path fill="#030202" opacity="1.000000" stroke="none" 
	d="
M242.000397,460.924072 
	C233.212646,469.769409 222.051331,470.991638 213.583450,464.320618 
	C204.987274,457.548584 202.765823,446.082489 208.323471,437.170929 
	C214.285767,427.610535 227.239487,424.293396 236.126083,430.051361 
	C247.332138,437.312103 249.709305,449.278534 242.000397,460.924072 
z"/>
<path fill="#0B0806" opacity="1.000000" stroke="none" 
	d="
M151.488403,432.636902 
	C152.533218,433.912872 153.306610,434.928101 154.497467,436.491333 
	C142.703354,436.491333 131.562088,436.491333 120.418854,436.497620 
	C124.598824,425.723419 139.729431,423.695679 151.488403,432.636902 
z"/>
<path fill="#030302" opacity="1.000000" stroke="none" 
	d="
M658.888306,445.403748 
	C659.147766,458.911957 650.341248,468.532837 638.271301,468.405151 
	C626.715881,468.282928 617.809265,458.900391 617.901611,446.947083 
	C617.974915,437.457642 625.045288,429.617340 635.455383,427.481750 
	C643.761108,425.777863 653.324158,430.966827 657.017212,439.295807 
	C657.819153,441.104340 658.241089,443.081360 658.888306,445.403748 
z"/>
</svg>